<svg width="20" height="21" viewBox="0 0 20 21" fill="none" xmlns="http://www.w3.org/2000/svg">
<path d="M11.2746 7.46021C10.7975 7.80028 10.2138 8.00033 9.58332 8.00033C7.97249 8.00033 6.66666 6.69449 6.66666 5.08366C6.66666 3.47283 7.97249 2.16699 9.58332 2.16699C10.6275 2.16699 11.5435 2.71567 12.0587 3.54044M4.99999 17.2396H7.17523C7.45885 17.2396 7.74073 17.2734 8.01567 17.3409L10.3141 17.8994C10.8128 18.0209 11.3323 18.0327 11.8362 17.9348L14.3775 17.4404C15.0488 17.3096 15.6663 16.9882 16.1503 16.5174L17.9482 14.7684C18.4617 14.2698 18.4617 13.4607 17.9482 12.9612C17.4859 12.5115 16.7539 12.4609 16.2309 12.8423L14.1355 14.371C13.8354 14.5904 13.4703 14.7085 13.0947 14.7085H11.0712L12.3592 14.7085C13.0852 14.7085 13.6732 14.1364 13.6732 13.4303V13.1746C13.6732 12.5882 13.263 12.077 12.6784 11.9352L10.6905 11.4518C10.367 11.3733 10.0357 11.3337 9.70261 11.3337C8.8986 11.3337 7.44323 11.9993 7.44323 11.9993L4.99999 13.0211M16.6667 5.91699C16.6667 7.52782 15.3608 8.83366 13.75 8.83366C12.1392 8.83366 10.8333 7.52782 10.8333 5.91699C10.8333 4.30616 12.1392 3.00033 13.75 3.00033C15.3608 3.00033 16.6667 4.30616 16.6667 5.91699ZM1.66666 12.667L1.66666 17.5003C1.66666 17.967 1.66666 18.2004 1.75748 18.3787C1.83738 18.5355 1.96486 18.6629 2.12166 18.7428C2.29992 18.8337 2.53328 18.8337 2.99999 18.8337H3.66666C4.13337 18.8337 4.36672 18.8337 4.54498 18.7428C4.70178 18.6629 4.82927 18.5355 4.90916 18.3787C4.99999 18.2004 4.99999 17.967 4.99999 17.5003V12.667C4.99999 12.2003 4.99999 11.9669 4.90916 11.7887C4.82927 11.6319 4.70178 11.5044 4.54498 11.4245C4.36672 11.3337 4.13337 11.3337 3.66666 11.3337L2.99999 11.3337C2.53328 11.3337 2.29992 11.3337 2.12166 11.4245C1.96486 11.5044 1.83738 11.6319 1.75748 11.7887C1.66666 11.9669 1.66666 12.2003 1.66666 12.667Z" stroke="#030303" stroke-width="1.5" stroke-linecap="round" stroke-linejoin="round"/>
</svg>
