<svg width="18" height="20" viewBox="0 0 18 20" fill="none" xmlns="http://www.w3.org/2000/svg">
<path d="M6.7952 17.4998C7.38281 18.0185 8.15468 18.3332 9.00006 18.3332C9.84543 18.3332 10.6173 18.0185 11.2049 17.4998M14.0001 6.6665C14.0001 5.34042 13.4733 4.06865 12.5356 3.13097C11.5979 2.19329 10.3261 1.6665 9.00006 1.6665C7.67397 1.6665 6.4022 2.19329 5.46452 3.13097C4.52684 4.06865 4.00006 5.34042 4.00006 6.6665C4.00006 9.24166 3.35045 11.0048 2.62478 12.171C2.01266 13.1547 1.7066 13.6466 1.71783 13.7838C1.73025 13.9357 1.76244 13.9937 1.88487 14.0845C1.99544 14.1665 2.49388 14.1665 3.49077 14.1665H14.5093C15.5062 14.1665 16.0047 14.1665 16.1152 14.0845C16.2377 13.9937 16.2699 13.9357 16.2823 13.7838C16.2935 13.6466 15.9875 13.1547 15.3753 12.171C14.6497 11.0048 14.0001 9.24166 14.0001 6.6665Z" stroke="#030303" stroke-width="2" stroke-linecap="round" stroke-linejoin="round"/>
</svg>
