<svg width="12" height="16" viewBox="0 0 12 16" fill="none" xmlns="http://www.w3.org/2000/svg">
<path d="M7.33329 1.5127V4.26639C7.33329 4.63976 7.33329 4.82644 7.40595 4.96905C7.46987 5.09449 7.57186 5.19648 7.6973 5.26039C7.83991 5.33306 8.02659 5.33306 8.39996 5.33306H11.1537M3.99996 9.99967L5.99996 11.9997M5.99996 11.9997L7.99996 9.99967M5.99996 11.9997L5.99996 7.99967M7.33329 1.33301H3.86663C2.74652 1.33301 2.18647 1.33301 1.75864 1.55099C1.38232 1.74274 1.07636 2.0487 0.884613 2.42503C0.666626 2.85285 0.666626 3.4129 0.666626 4.53301V11.4663C0.666626 12.5864 0.666626 13.1465 0.884613 13.5743C1.07636 13.9506 1.38232 14.2566 1.75864 14.4484C2.18647 14.6663 2.74652 14.6663 3.86663 14.6663H8.13329C9.2534 14.6663 9.81345 14.6663 10.2413 14.4484C10.6176 14.2566 10.9236 13.9506 11.1153 13.5743C11.3333 13.1465 11.3333 12.5864 11.3333 11.4663V5.33301L7.33329 1.33301Z" stroke="white" stroke-linecap="round" stroke-linejoin="round"/>
</svg>
