<svg width="16" height="16" viewBox="0 0 16 16" fill="none" xmlns="http://www.w3.org/2000/svg">
<path d="M7.33337 2.66666H4.53337C3.41327 2.66666 2.85322 2.66666 2.42539 2.88464C2.04907 3.07639 1.74311 3.38235 1.55136 3.75867C1.33337 4.1865 1.33337 4.74655 1.33337 5.86666V11.4667C1.33337 12.5868 1.33337 13.1468 1.55136 13.5746C1.74311 13.951 2.04907 14.2569 2.42539 14.4487C2.85322 14.6667 3.41327 14.6667 4.53337 14.6667H10.1334C11.2535 14.6667 11.8135 14.6667 12.2414 14.4487C12.6177 14.2569 12.9236 13.951 13.1154 13.5746C13.3334 13.1468 13.3334 12.5868 13.3334 11.4667V8.66666M5.33336 10.6667H6.44972C6.77584 10.6667 6.9389 10.6667 7.09235 10.6298C7.2284 10.5972 7.35846 10.5433 7.47775 10.4702C7.61231 10.3877 7.72761 10.2724 7.95821 10.0418L14.3334 3.66666C14.8857 3.11437 14.8857 2.21894 14.3334 1.66666C13.7811 1.11437 12.8857 1.11437 12.3334 1.66665L5.9582 8.04182C5.72759 8.27242 5.61229 8.38772 5.52984 8.52228C5.45673 8.64157 5.40286 8.77163 5.3702 8.90768C5.33336 9.06113 5.33336 9.22419 5.33336 9.55031V10.6667Z" stroke="#AD2026" stroke-linecap="round" stroke-linejoin="round"/>
</svg>
